<svg width="196" height="126" viewBox="0 0 196 126" fill="none" xmlns="http://www.w3.org/2000/svg">
<path d="M26.3457 100.17C25.6641 93.491 20.6888 89.6743 13.9415 89.6743C6.49898 89.6743 0.705811 94.7859 0.705811 104.014C0.705811 113.201 6.36267 118.354 13.9415 118.354C21.6021 118.354 25.8413 113.147 26.3457 108.199L19.5302 108.158C19.0531 110.843 17.0357 112.438 14.0778 112.438C10.0976 112.438 7.58945 109.562 7.58945 104.014C7.58945 98.6844 10.043 95.5902 14.1187 95.5902C17.1857 95.5902 19.1894 97.3758 19.5302 100.17H26.3457Z" fill="white"/>
<path d="M55.5466 100.17C54.8651 93.491 49.8898 89.6743 43.1424 89.6743C35.6999 89.6743 29.9068 94.7859 29.9068 104.014C29.9068 113.201 35.5636 118.354 43.1424 118.354C50.8031 118.354 55.0423 113.147 55.5466 108.199L48.7311 108.158C48.2541 110.843 46.2367 112.438 43.2788 112.438C39.2985 112.438 36.7904 109.562 36.7904 104.014C36.7904 98.6844 39.244 95.5902 43.3196 95.5902C46.3866 95.5902 48.3904 97.3758 48.7311 100.17H55.5466Z" fill="white"/>
<path d="M85.9744 99.1751H92.8035C92.1219 93.6137 87.1603 89.6743 80.6992 89.6743C73.243 89.6743 67.3545 94.9222 67.3545 104.055C67.3545 112.888 72.7796 118.354 80.781 118.354C87.9645 118.354 93.1034 113.897 93.1034 106.4V102.706H81.0672V107.626H86.6014C86.5332 110.571 84.4886 112.438 80.8355 112.438C76.6508 112.438 74.2381 109.344 74.2381 103.973C74.2381 98.6435 76.7871 95.5902 80.8355 95.5902C83.5344 95.5902 85.3746 96.9124 85.9744 99.1751Z" fill="white"/>
<path d="M102.982 118.327C105.899 118.327 107.917 117.195 109.062 115.055H109.225V117.972H115.496V103.741C115.496 99.3114 111.556 96.7624 106.227 96.7624C100.597 96.7624 97.4074 99.5977 96.8757 103.414L103.023 103.632C103.31 102.297 104.414 101.479 106.172 101.479C107.808 101.479 108.844 102.269 108.844 103.673V103.741C108.844 105.023 107.453 105.295 103.882 105.609C99.6428 105.963 96.0988 107.531 96.0988 112.165C96.0988 116.309 98.9749 118.327 102.982 118.327ZM105.041 113.965C103.5 113.965 102.41 113.229 102.41 111.838C102.41 110.489 103.473 109.671 105.368 109.385C106.608 109.208 108.135 108.935 108.885 108.54V110.53C108.885 112.574 107.167 113.965 105.041 113.965Z" fill="white"/>
<path d="M126.237 90.056H119.571V117.972H126.237V90.056Z" fill="white"/>
<path d="M136.382 118.327C139.299 118.327 141.316 117.195 142.461 115.055H142.625V117.972H148.895V103.741C148.895 99.3114 144.956 96.7624 139.626 96.7624C133.996 96.7624 130.807 99.5977 130.275 103.414L136.423 103.632C136.709 102.297 137.813 101.479 139.571 101.479C141.207 101.479 142.243 102.269 142.243 103.673V103.741C142.243 105.023 140.853 105.295 137.281 105.609C133.042 105.963 129.498 107.531 129.498 112.165C129.498 116.309 132.374 118.327 136.382 118.327ZM138.44 113.965C136.9 113.965 135.809 113.229 135.809 111.838C135.809 110.489 136.872 109.671 138.767 109.385C140.008 109.208 141.534 108.935 142.284 108.54V110.53C142.284 112.574 140.566 113.965 138.44 113.965Z" fill="white"/>
<path d="M158.641 97.035H151.88L157.66 107.504L151.58 117.972H158.341L162.09 111.02L165.934 117.972H172.599L166.533 107.504L172.381 97.035H165.661L162.09 103.932L158.641 97.035Z" fill="white"/>
<path d="M179.5 125.824C184.298 125.824 186.683 123.397 187.842 119.976L195.734 97.0487L188.714 97.035L184.802 111.975H184.584L180.727 97.035H173.748L181.19 118.736L180.931 119.363C180.29 120.93 178.846 120.957 176.883 120.317L175.411 125.156C176.419 125.565 177.905 125.824 179.5 125.824Z" fill="white"/>
<g clip-path="url(#clip0)">
<path d="M120.048 46.8956L130.893 53.2229C129.254 56.0497 127.253 58.6421 124.934 60.8977C118.627 67.1078 110.029 70.9159 100.562 70.9159C100.257 70.9159 99.9526 70.9013 99.6481 70.9013C87.1069 70.5644 76.1749 63.5634 70.2595 53.2669C67.2438 48.0527 65.533 41.989 65.533 35.5299C65.533 29.0855 67.2438 23.0511 70.2305 17.8369C76.2909 7.27678 87.6143 0.143921 100.562 0.143921C113.509 0.143921 124.847 7.29143 130.907 17.8809L120.077 24.2082C116.177 17.3975 108.884 12.7985 100.562 12.7985C92.2394 12.7985 84.9611 17.3682 81.0755 24.1642C79.1471 27.5036 78.0452 31.385 78.0452 35.5299C78.0452 39.6895 79.1616 43.5855 81.0899 46.9396C81.0899 46.9396 81.1044 46.9689 81.1334 47.0275C85.0626 53.7502 92.2974 58.2613 100.562 58.2613C108.869 58.2613 116.148 53.6916 120.048 46.8956Z" fill="#4DB7B4"/>
<path d="M119.091 35.5299C119.091 38.9425 118.192 42.1355 116.597 44.889C113.393 50.484 107.405 54.2482 100.562 54.2482C99.7642 54.2482 98.9813 54.2042 98.2129 54.1017C92.3845 53.3547 87.3824 49.8542 84.5407 44.933L89.9487 41.7693L95.3712 38.6057C96.4296 40.4072 98.3579 41.6082 100.562 41.6082C102.78 41.6082 104.723 40.3779 105.767 38.5617C106.274 37.6683 106.579 36.6284 106.579 35.5299C106.579 34.5779 106.361 33.6844 105.97 32.8935C105.955 32.8642 105.941 32.8349 105.941 32.8057C105.926 32.7764 105.912 32.7617 105.897 32.7324C105.868 32.6738 105.839 32.6299 105.81 32.586C105.796 32.5567 105.781 32.542 105.781 32.542C104.752 30.6966 102.794 29.4516 100.562 29.4516C98.3289 29.4516 96.3861 30.6819 95.3567 32.4981H95.3422L89.9342 29.3344L84.5117 26.1708C87.7159 20.5758 93.7183 16.8116 100.562 16.8116C107.419 16.8116 113.422 20.6051 116.626 26.2147C118.192 28.9536 119.091 32.1466 119.091 35.5299Z" fill="#4DB7B4"/>
<path d="M120.048 46.8956L130.893 53.2229C129.254 56.0497 127.253 58.6421 124.934 60.8977C118.627 67.1078 110.029 70.9159 100.562 70.9159C100.257 70.9159 99.9526 70.9013 99.6481 70.9013C87.1069 70.5644 76.1749 63.5634 70.2595 53.2669C67.2438 48.0527 65.533 41.989 65.533 35.5299C65.533 29.0855 67.2438 23.0511 70.2305 17.8369C76.2909 7.27678 87.6143 0.143921 100.562 0.143921C113.509 0.143921 124.847 7.29143 130.907 17.8809L120.077 24.2082C116.177 17.3975 108.884 12.7985 100.562 12.7985C92.2394 12.7985 84.9611 17.3682 81.0755 24.1642C79.1471 27.5036 78.0452 31.385 78.0452 35.5299C78.0452 39.6895 79.1616 43.5855 81.0899 46.9396C81.0899 46.9396 81.1044 46.9689 81.1334 47.0275C85.0626 53.7502 92.2974 58.2613 100.562 58.2613C108.869 58.2613 116.148 53.6916 120.048 46.8956Z" fill="#DB105F"/>
<path d="M117.119 27.1521C114.93 26.3465 105.825 23.3293 98.7058 25.995C90.9925 28.8511 85.2076 26.3172 84.5986 26.0243C87.8173 20.5026 93.7762 16.8116 100.562 16.8116C107.419 16.8116 113.422 20.6051 116.626 26.2147C116.8 26.5223 116.974 26.8299 117.119 27.1521Z" fill="url(#paint0_linear)"/>
<path d="M119.091 35.442C115.481 34.7829 111.001 34.5486 107.101 35.9986C106.912 36.0718 106.724 36.1304 106.535 36.189C106.564 35.9839 106.579 35.7496 106.579 35.5299C106.579 34.5779 106.361 33.6844 105.97 32.8935C105.955 32.8642 105.941 32.8349 105.941 32.8056C105.926 32.7763 105.912 32.7617 105.897 32.7324C105.868 32.6738 105.839 32.6299 105.81 32.5859C105.796 32.5567 105.781 32.542 105.781 32.542C104.752 30.6965 102.794 29.4516 100.562 29.4516C98.3289 29.4516 96.3861 30.6819 95.3567 32.4981H95.3422L89.9342 29.3344L84.5117 26.1708C84.5407 26.1268 84.5697 26.0682 84.5987 26.0243C85.2077 26.3172 90.9926 28.8511 98.7058 25.995C105.825 23.3293 114.93 26.3465 117.119 27.1521C118.366 29.642 119.076 32.4688 119.091 35.442Z" fill="url(#paint1_linear)"/>
<path d="M119.091 35.4421V35.53C119.091 38.9426 118.192 42.1356 116.597 44.8891C115.988 45.9583 115.278 46.9543 114.48 47.877C110.855 46.7785 103.766 45.1967 97.9807 47.3497C93.4717 49.0341 89.6295 48.8583 87.0778 48.3604C86.1064 47.3204 85.251 46.178 84.5405 44.9331L89.9485 41.7694L95.371 38.6058C96.4294 40.4073 98.3577 41.6083 100.561 41.6083C102.78 41.6083 104.723 40.378 105.766 38.5618C106.172 37.8442 106.448 37.0532 106.535 36.1891C106.723 36.1305 106.912 36.0719 107.1 35.9987C111 34.5487 115.481 34.783 119.091 35.4421Z" fill="url(#paint2_linear)"/>
<path d="M114.48 47.8769C111.073 51.7876 106.1 54.2482 100.562 54.2482C99.7641 54.2482 98.9812 54.2042 98.2128 54.1017C93.8487 53.5452 89.9486 51.4361 87.0779 48.3603C89.6296 48.8583 93.4718 49.034 97.9808 47.3497C103.766 45.1966 110.856 46.7785 114.48 47.8769Z" fill="url(#paint3_linear)"/>
<path d="M84.5993 26.0247C84.5552 26.0098 84.5405 25.995 84.5405 25.995" stroke="white" stroke-width="0.149941" stroke-miterlimit="10"/>
</g>
<defs>
<linearGradient id="paint0_linear" x1="100.859" y1="16.8116" x2="100.859" y2="27.3404" gradientUnits="userSpaceOnUse">
<stop stop-color="#DB105F"/>
<stop offset="1" stop-color="#FF5F9D"/>
</linearGradient>
<linearGradient id="paint1_linear" x1="101.801" y1="24.9169" x2="102.215" y2="28.8668" gradientUnits="userSpaceOnUse">
<stop stop-color="#DB105F"/>
<stop offset="1" stop-color="#EA4183"/>
</linearGradient>
<linearGradient id="paint2_linear" x1="97.1968" y1="50.5838" x2="96.95" y2="37.0107" gradientUnits="userSpaceOnUse">
<stop stop-color="#DB105F"/>
<stop offset="0.572917" stop-color="#F12776"/>
<stop offset="1" stop-color="#DB105F"/>
</linearGradient>
<linearGradient id="paint3_linear" x1="85.3513" y1="-5.10704" x2="101.228" y2="36.5171" gradientUnits="userSpaceOnUse">
<stop stop-color="#DB105F"/>
<stop offset="1" stop-color="#F4468A"/>
</linearGradient>
<clipPath id="clip0">
<rect width="65.3742" height="70.772" fill="white" transform="translate(65.533 0.143921)"/>
</clipPath>
</defs>
</svg>
