<svg width="326" height="119" viewBox="0 0 326 119" fill="none" xmlns="http://www.w3.org/2000/svg">
<g clip-path="url(#clip0)">
<path d="M79.2205 70.7517L90.0655 77.079C88.4271 79.9058 86.4263 82.4982 84.1065 84.7538C77.7997 90.9639 69.202 94.772 59.7344 94.772C59.4299 94.772 59.1255 94.7574 58.821 94.7574C46.2797 94.4205 35.3478 87.4195 29.4324 77.123C26.4166 71.9088 24.7058 65.8451 24.7058 59.386C24.7058 52.9415 26.4166 46.9072 29.4034 41.693C35.4638 31.1329 46.7872 24 59.7344 24C72.6817 24 84.0196 31.1475 90.08 41.7369L79.2495 48.0642C75.3494 41.2536 68.0566 36.6546 59.7344 36.6546C51.4122 36.6546 44.1339 41.2243 40.2483 48.0203C38.32 51.3597 37.2181 55.241 37.2181 59.386C37.2181 63.5456 38.3345 67.4416 40.2628 70.7957C40.2628 70.7957 40.2773 70.8249 40.3063 70.8835C44.2354 77.6063 51.4702 82.1174 59.7344 82.1174C68.0421 82.1174 75.3204 77.5477 79.2205 70.7517Z" fill="#4DB7B4"/>
<path d="M78.2637 59.386C78.2637 62.7986 77.3648 65.9916 75.77 68.7451C72.5658 74.3401 66.5778 78.1042 59.7345 78.1042C58.9371 78.1042 58.1542 78.0603 57.3857 77.9578C51.5573 77.2108 46.5553 73.7103 43.7136 68.7891L49.1215 65.6254L54.544 62.4618C55.6024 64.2633 57.5307 65.4643 59.7345 65.4643C61.9528 65.4643 63.8956 64.234 64.9395 62.4178C65.447 61.5244 65.7514 60.4845 65.7514 59.386C65.7514 58.434 65.5339 57.5405 65.1425 56.7496C65.128 56.7203 65.1135 56.691 65.1135 56.6617C65.099 56.6324 65.0845 56.6178 65.07 56.5885C65.041 56.5299 65.012 56.486 64.983 56.442C64.9685 56.4127 64.954 56.3981 64.954 56.3981C63.9246 54.5526 61.9673 53.3077 59.7345 53.3077C57.5017 53.3077 55.5589 54.538 54.5295 56.3542H54.515L49.107 53.1905L43.6846 50.0269C46.8888 44.4319 52.8912 40.6677 59.7345 40.6677C66.5923 40.6677 72.5948 44.4612 75.799 50.0708C77.3648 52.8097 78.2637 56.0026 78.2637 59.386Z" fill="#4DB7B4"/>
<path d="M79.2205 70.7517L90.0655 77.079C88.4271 79.9058 86.4263 82.4982 84.1065 84.7538C77.7997 90.9639 69.202 94.772 59.7344 94.772C59.4299 94.772 59.1255 94.7574 58.821 94.7574C46.2797 94.4205 35.3478 87.4195 29.4324 77.123C26.4166 71.9088 24.7058 65.8451 24.7058 59.386C24.7058 52.9415 26.4166 46.9072 29.4034 41.693C35.4638 31.1329 46.7872 24 59.7344 24C72.6817 24 84.0196 31.1475 90.08 41.7369L79.2495 48.0642C75.3494 41.2536 68.0566 36.6546 59.7344 36.6546C51.4122 36.6546 44.1339 41.2243 40.2483 48.0203C38.32 51.3597 37.2181 55.241 37.2181 59.386C37.2181 63.5456 38.3345 67.4416 40.2628 70.7957C40.2628 70.7957 40.2773 70.8249 40.3063 70.8835C44.2354 77.6063 51.4702 82.1174 59.7344 82.1174C68.0421 82.1174 75.3204 77.5477 79.2205 70.7517Z" fill="#DB105F"/>
<path d="M76.2918 51.0082C74.1025 50.2026 64.9974 47.1854 57.8786 49.8511C50.1654 52.7072 44.3804 50.1733 43.7715 49.8804C46.9902 44.3586 52.9491 40.6677 59.7344 40.6677C66.5923 40.6677 72.5947 44.4612 75.7989 50.0708C75.9729 50.3784 76.1469 50.686 76.2918 51.0082Z" fill="url(#paint0_linear)"/>
<path d="M78.2637 59.2981C74.6536 58.639 70.1735 58.4047 66.2734 59.8547C66.0849 59.9279 65.8964 59.9865 65.7079 60.0451C65.7369 59.84 65.7514 59.6057 65.7514 59.386C65.7514 58.434 65.5339 57.5405 65.1425 56.7496C65.128 56.7203 65.1135 56.691 65.1135 56.6617C65.099 56.6324 65.0845 56.6178 65.07 56.5885C65.041 56.5299 65.012 56.486 64.983 56.442C64.9685 56.4127 64.954 56.3981 64.954 56.3981C63.9246 54.5526 61.9673 53.3077 59.7345 53.3077C57.5017 53.3077 55.5589 54.538 54.5295 56.3541H54.515L49.107 53.1905L43.6846 50.0268C43.7136 49.9829 43.7426 49.9243 43.7716 49.8804C44.3805 50.1733 50.1654 52.7072 57.8787 49.8511C64.9975 47.1854 74.1026 50.2026 76.2919 51.0082C77.5388 53.4981 78.2492 56.3249 78.2637 59.2981Z" fill="url(#paint1_linear)"/>
<path d="M78.2635 59.2982V59.3861C78.2635 62.7987 77.3646 65.9917 75.7698 68.7452C75.1608 69.8144 74.4504 70.8104 73.653 71.7331C70.0283 70.6346 62.9385 69.0528 57.1536 71.2058C52.6445 72.8902 48.8024 72.7144 46.2506 72.2164C45.2792 71.1765 44.4238 70.0341 43.7134 68.7891L49.1214 65.6255L54.5438 62.4618C55.6022 64.2634 57.5305 65.4644 59.7343 65.4644C61.9526 65.4644 63.8954 64.2341 64.9393 62.4179C65.3453 61.7002 65.6208 60.9093 65.7077 60.0452C65.8962 59.9866 66.0847 59.928 66.2732 59.8548C70.1733 58.4048 74.6534 58.6391 78.2635 59.2982Z" fill="url(#paint2_linear)"/>
<path d="M73.6531 71.733C70.2459 75.6436 65.2729 78.1043 59.7344 78.1043C58.937 78.1043 58.1541 78.0603 57.3857 77.9578C53.0216 77.4012 49.1215 75.2921 46.2507 72.2164C48.8025 72.7143 52.6446 72.8901 57.1537 71.2058C62.9386 69.0527 70.0284 70.6345 73.6531 71.733Z" fill="url(#paint3_linear)"/>
<path d="M43.7722 49.8808C43.7281 49.8659 43.7134 49.8511 43.7134 49.8511" stroke="#9B8579" stroke-width="0.149941" stroke-miterlimit="10"/>
</g>
<path d="M132.44 58.092C131.759 51.4129 126.783 47.5962 120.036 47.5962C112.593 47.5962 106.8 52.7078 106.8 61.936C106.8 71.1233 112.457 76.2758 120.036 76.2758C127.697 76.2758 131.936 71.0687 132.44 66.1207L125.625 66.0798C125.148 68.7651 123.13 70.3599 120.172 70.3599C116.192 70.3599 113.684 67.4838 113.684 61.936C113.684 56.6063 116.138 53.512 120.213 53.512C123.28 53.512 125.284 55.2977 125.625 58.092H132.44Z" fill="#444444"/>
<path d="M161.641 58.092C160.96 51.4129 155.984 47.5962 149.237 47.5962C141.794 47.5962 136.001 52.7078 136.001 61.936C136.001 71.1233 141.658 76.2758 149.237 76.2758C156.898 76.2758 161.137 71.0687 161.641 66.1207L154.826 66.0798C154.349 68.7651 152.331 70.3599 149.373 70.3599C145.393 70.3599 142.885 67.4838 142.885 61.936C142.885 56.6063 145.338 53.512 149.414 53.512C152.481 53.512 154.485 55.2977 154.826 58.092H161.641Z" fill="#444444"/>
<path d="M192.069 57.097H198.898C198.216 51.5355 193.255 47.5962 186.794 47.5962C179.338 47.5962 173.449 52.8441 173.449 61.9769C173.449 70.8097 178.874 76.2758 186.875 76.2758C194.059 76.2758 199.198 71.8184 199.198 64.3214V60.6274H187.162V65.5482H192.696C192.628 68.4925 190.583 70.3599 186.93 70.3599C182.745 70.3599 180.333 67.2657 180.333 61.8951C180.333 56.5654 182.882 53.512 186.93 53.512C189.629 53.512 191.469 54.8342 192.069 57.097Z" fill="#444444"/>
<path d="M209.077 76.2485C211.994 76.2485 214.011 75.1171 215.156 72.9771H215.32V75.8941H221.59V61.6634C221.59 57.2333 217.651 54.6843 212.321 54.6843C206.691 54.6843 203.502 57.5195 202.97 61.3362L209.118 61.5543C209.404 60.2185 210.508 59.4006 212.267 59.4006C213.902 59.4006 214.938 60.1912 214.938 61.5952V61.6634C214.938 62.9447 213.548 63.2173 209.977 63.5308C205.737 63.8852 202.193 65.4528 202.193 70.0873C202.193 74.2311 205.069 76.2485 209.077 76.2485ZM211.135 71.8866C209.595 71.8866 208.504 71.1505 208.504 69.7602C208.504 68.4107 209.568 67.5928 211.462 67.3066C212.703 67.1294 214.229 66.8568 214.979 66.4615V68.4516C214.979 70.4962 213.262 71.8866 211.135 71.8866Z" fill="#444444"/>
<path d="M232.331 47.9779H225.666V75.8941H232.331V47.9779Z" fill="#444444"/>
<path d="M242.476 76.2485C245.393 76.2485 247.411 75.1171 248.556 72.9771H248.719V75.8941H254.989V61.6634C254.989 57.2333 251.05 54.6843 245.72 54.6843C240.091 54.6843 236.901 57.5195 236.37 61.3362L242.517 61.5543C242.803 60.2185 243.907 59.4006 245.666 59.4006C247.302 59.4006 248.338 60.1912 248.338 61.5952V61.6634C248.338 62.9447 246.947 63.2173 243.376 63.5308C239.137 63.8852 235.593 65.4528 235.593 70.0873C235.593 74.2311 238.469 76.2485 242.476 76.2485ZM244.534 71.8866C242.994 71.8866 241.904 71.1505 241.904 69.7602C241.904 68.4107 242.967 67.5928 244.862 67.3066C246.102 67.1294 247.629 66.8568 248.378 66.4615V68.4516C248.378 70.4962 246.661 71.8866 244.534 71.8866Z" fill="#444444"/>
<path d="M264.736 54.9569H257.975L263.754 65.4255L257.675 75.8941H264.436L268.184 68.9423L272.028 75.8941H278.694L272.628 65.4255L278.476 54.9569H271.756L268.184 61.8542L264.736 54.9569Z" fill="#444444"/>
<path d="M285.594 83.7455C290.392 83.7455 292.778 81.3192 293.937 77.8979L301.829 54.9706L294.809 54.9569L290.897 69.8965H290.679L286.821 54.9569H279.842L287.285 76.6574L287.026 77.2845C286.385 78.852 284.94 78.8793 282.977 78.2386L281.505 83.0776C282.514 83.4866 284 83.7455 285.594 83.7455Z" fill="#444444"/>
<defs>
<linearGradient id="paint0_linear" x1="60.0317" y1="40.6677" x2="60.0317" y2="51.1964" gradientUnits="userSpaceOnUse">
<stop stop-color="#DB105F"/>
<stop offset="1" stop-color="#FF5F9D"/>
</linearGradient>
<linearGradient id="paint1_linear" x1="60.9741" y1="48.7729" x2="61.3877" y2="52.7228" gradientUnits="userSpaceOnUse">
<stop stop-color="#DB105F"/>
<stop offset="1" stop-color="#EA4183"/>
</linearGradient>
<linearGradient id="paint2_linear" x1="56.3696" y1="74.4398" x2="56.1228" y2="60.8668" gradientUnits="userSpaceOnUse">
<stop stop-color="#DB105F"/>
<stop offset="0.572917" stop-color="#F12776"/>
<stop offset="1" stop-color="#DB105F"/>
</linearGradient>
<linearGradient id="paint3_linear" x1="44.5241" y1="18.749" x2="60.4005" y2="60.3731" gradientUnits="userSpaceOnUse">
<stop stop-color="#DB105F"/>
<stop offset="1" stop-color="#F4468A"/>
</linearGradient>
<clipPath id="clip0">
<rect width="65.3742" height="70.772" fill="white" transform="translate(24.7058 24)"/>
</clipPath>
</defs>
</svg>
