<svg width="244" height="175" viewBox="0 0 244 175" fill="none" xmlns="http://www.w3.org/2000/svg">
<path d="M50.1255 124.412C49.4439 117.733 44.4686 113.916 37.7213 113.916C30.2788 113.916 24.4856 119.028 24.4856 128.256C24.4856 137.443 30.1425 142.596 37.7213 142.596C45.3819 142.596 49.6211 137.389 50.1255 132.441L43.31 132.4C42.8329 135.085 40.8155 136.68 37.8576 136.68C33.8773 136.68 31.3692 133.804 31.3692 128.256C31.3692 122.926 33.8228 119.832 37.8985 119.832C40.9654 119.832 42.9692 121.618 43.31 124.412H50.1255Z" fill="#444444"/>
<path d="M79.3264 124.412C78.6449 117.733 73.6696 113.916 66.9222 113.916C59.4797 113.916 53.6866 119.028 53.6866 128.256C53.6866 137.443 59.3434 142.596 66.9222 142.596C74.5828 142.596 78.8221 137.389 79.3264 132.441L72.5109 132.4C72.0338 135.085 70.0165 136.68 67.0585 136.68C63.0783 136.68 60.5702 133.804 60.5702 128.256C60.5702 122.926 63.0238 119.832 67.0994 119.832C70.1664 119.832 72.1702 121.618 72.5109 124.412H79.3264Z" fill="#444444"/>
<path d="M109.754 123.417H116.583C115.902 117.856 110.94 113.916 104.479 113.916C97.0228 113.916 91.1342 119.164 91.1342 128.297C91.1342 137.13 96.5594 142.596 104.561 142.596C111.744 142.596 116.883 138.139 116.883 130.642V126.948H104.847V131.868H110.381C110.313 134.813 108.268 136.68 104.615 136.68C100.431 136.68 98.0179 133.586 98.0179 128.215C98.0179 122.886 100.567 119.832 104.615 119.832C107.314 119.832 109.154 121.154 109.754 123.417Z" fill="#444444"/>
<path d="M126.762 142.569C129.679 142.569 131.697 141.437 132.842 139.297H133.005V142.214H139.275V127.984C139.275 123.553 135.336 121.004 130.006 121.004C124.377 121.004 121.187 123.84 120.656 127.656L126.803 127.875C127.089 126.539 128.193 125.721 129.952 125.721C131.588 125.721 132.624 126.511 132.624 127.915V127.984C132.624 129.265 131.233 129.537 127.662 129.851C123.423 130.205 119.879 131.773 119.879 136.407C119.879 140.551 122.755 142.569 126.762 142.569ZM128.82 138.207C127.28 138.207 126.19 137.471 126.19 136.08C126.19 134.731 127.253 133.913 129.148 133.627C130.388 133.45 131.915 133.177 132.664 132.782V134.772C132.664 136.816 130.947 138.207 128.82 138.207Z" fill="#444444"/>
<path d="M150.017 114.298H143.351V142.214H150.017V114.298Z" fill="#444444"/>
<path d="M160.161 142.569C163.079 142.569 165.096 141.437 166.241 139.297H166.404V142.214H172.675V127.984C172.675 123.553 168.735 121.004 163.406 121.004C157.776 121.004 154.586 123.84 154.055 127.656L160.202 127.875C160.489 126.539 161.593 125.721 163.351 125.721C164.987 125.721 166.023 126.511 166.023 127.915V127.984C166.023 129.265 164.632 129.537 161.061 129.851C156.822 130.205 153.278 131.773 153.278 136.407C153.278 140.551 156.154 142.569 160.161 142.569ZM162.22 138.207C160.679 138.207 159.589 137.471 159.589 136.08C159.589 134.731 160.652 133.913 162.547 133.627C163.787 133.45 165.314 133.177 166.064 132.782V134.772C166.064 136.816 164.346 138.207 162.22 138.207Z" fill="#444444"/>
<path d="M182.421 121.277H175.66L181.439 131.746L175.36 142.214H182.121L185.87 135.262L189.713 142.214H196.379L190.313 131.746L196.161 121.277H189.441L185.87 128.174L182.421 121.277Z" fill="#444444"/>
<path d="M203.28 150.066C208.078 150.066 210.463 147.639 211.622 144.218L219.514 121.291L212.494 121.277L208.582 136.217H208.364L204.506 121.277H197.527L204.97 142.978L204.711 143.605C204.07 145.172 202.625 145.199 200.663 144.559L199.19 149.398C200.199 149.807 201.685 150.066 203.28 150.066Z" fill="#444444"/>
<g clip-path="url(#clip0)">
<path d="M143.827 71.1377L154.672 77.465C153.034 80.2918 151.033 82.8842 148.713 85.1398C142.407 91.3499 133.809 95.158 124.341 95.158C124.037 95.158 123.732 95.1434 123.428 95.1434C110.887 94.8065 99.9547 87.8054 94.0393 77.5089C91.0236 72.2948 89.3127 66.2311 89.3127 59.772C89.3127 53.3275 91.0236 47.2932 94.0103 42.079C100.071 31.5188 111.394 24.386 124.341 24.386C137.289 24.386 148.626 31.5335 154.687 42.1229L143.856 48.4502C139.956 41.6396 132.664 37.0406 124.341 37.0406C116.019 37.0406 108.741 41.6103 104.855 48.4063C102.927 51.7457 101.825 55.627 101.825 59.772C101.825 63.9316 102.941 67.8276 104.87 71.1816C104.87 71.1816 104.884 71.2109 104.913 71.2695C108.842 77.9923 116.077 82.5034 124.341 82.5034C132.649 82.5034 139.927 77.9337 143.827 71.1377Z" fill="#4DB7B4"/>
<path d="M142.871 59.772C142.871 63.1846 141.972 66.3776 140.377 69.1311C137.173 74.7261 131.185 78.4902 124.341 78.4902C123.544 78.4902 122.761 78.4463 121.993 78.3438C116.164 77.5968 111.162 74.0963 108.321 69.175L113.728 66.0114L119.151 62.8477C120.209 64.6493 122.138 65.8503 124.341 65.8503C126.56 65.8503 128.503 64.62 129.546 62.8038C130.054 61.9104 130.358 60.8705 130.358 59.772C130.358 58.8199 130.141 57.9265 129.749 57.1356C129.735 57.1063 129.72 57.077 129.72 57.0477C129.706 57.0184 129.691 57.0038 129.677 56.9745C129.648 56.9159 129.619 56.872 129.59 56.828C129.575 56.7987 129.561 56.7841 129.561 56.7841C128.532 54.9386 126.574 53.6937 124.341 53.6937C122.109 53.6937 120.166 54.924 119.136 56.7401H119.122L113.714 53.5765L108.292 50.4128C111.496 44.8179 117.498 41.0537 124.341 41.0537C131.199 41.0537 137.202 44.8472 140.406 50.4568C141.972 53.1957 142.871 56.3886 142.871 59.772Z" fill="#4DB7B4"/>
<path d="M143.827 71.1377L154.672 77.465C153.034 80.2918 151.033 82.8842 148.713 85.1398C142.407 91.3499 133.809 95.158 124.341 95.158C124.037 95.158 123.732 95.1434 123.428 95.1434C110.887 94.8065 99.9547 87.8054 94.0393 77.5089C91.0236 72.2948 89.3127 66.2311 89.3127 59.772C89.3127 53.3275 91.0236 47.2932 94.0103 42.079C100.071 31.5188 111.394 24.386 124.341 24.386C137.289 24.386 148.626 31.5335 154.687 42.1229L143.856 48.4502C139.956 41.6396 132.664 37.0406 124.341 37.0406C116.019 37.0406 108.741 41.6103 104.855 48.4063C102.927 51.7457 101.825 55.627 101.825 59.772C101.825 63.9316 102.941 67.8276 104.87 71.1816C104.87 71.1816 104.884 71.2109 104.913 71.2695C108.842 77.9923 116.077 82.5034 124.341 82.5034C132.649 82.5034 139.927 77.9337 143.827 71.1377Z" fill="#DB105F"/>
<path d="M140.899 51.3942C138.709 50.5886 129.604 47.5714 122.486 50.2371C114.772 53.0932 108.987 50.5593 108.378 50.2664C111.597 44.7446 117.556 41.0537 124.341 41.0537C131.199 41.0537 137.202 44.8472 140.406 50.4568C140.58 50.7644 140.754 51.0719 140.899 51.3942Z" fill="url(#paint0_linear)"/>
<path d="M142.871 59.6841C139.26 59.025 134.78 58.7906 130.88 60.2407C130.692 60.3139 130.503 60.3725 130.315 60.4311C130.344 60.226 130.358 59.9917 130.358 59.772C130.358 58.8199 130.141 57.9265 129.749 57.1356C129.735 57.1063 129.72 57.077 129.72 57.0477C129.706 57.0184 129.691 57.0038 129.677 56.9745C129.648 56.9159 129.619 56.8719 129.59 56.828C129.575 56.7987 129.561 56.7841 129.561 56.7841C128.532 54.9386 126.574 53.6937 124.341 53.6937C122.109 53.6937 120.166 54.924 119.136 56.7401H119.122L113.714 53.5765L108.292 50.4128C108.321 50.3689 108.349 50.3103 108.378 50.2664C108.987 50.5593 114.772 53.0931 122.486 50.2371C129.604 47.5714 138.71 50.5886 140.899 51.3941C142.146 53.8841 142.856 56.7108 142.871 59.6841Z" fill="url(#paint1_linear)"/>
<path d="M142.87 59.6842V59.7721C142.87 63.1847 141.972 66.3776 140.377 69.1312C139.768 70.2004 139.057 71.1964 138.26 72.1191C134.635 71.0206 127.545 69.4388 121.761 71.5918C117.251 73.2762 113.409 73.1004 110.858 72.6024C109.886 71.5625 109.031 70.4201 108.32 69.1751L113.728 66.0115L119.151 62.8478C120.209 64.6494 122.137 65.8504 124.341 65.8504C126.56 65.8504 128.502 64.6201 129.546 62.8039C129.952 62.0862 130.228 61.2953 130.315 60.4312C130.503 60.3726 130.692 60.314 130.88 60.2408C134.78 58.7907 139.26 59.0251 142.87 59.6842Z" fill="url(#paint2_linear)"/>
<path d="M138.26 72.119C134.853 76.0296 129.88 78.4902 124.341 78.4902C123.544 78.4902 122.761 78.4463 121.993 78.3438C117.629 77.7872 113.728 75.6781 110.858 72.6023C113.409 73.1003 117.252 73.2761 121.761 71.5917C127.546 69.4387 134.635 71.0205 138.26 72.119Z" fill="url(#paint3_linear)"/>
<path d="M108.379 50.2668C108.335 50.2519 108.32 50.2371 108.32 50.2371" stroke="#9B8579" stroke-width="0.149941" stroke-miterlimit="10"/>
</g>
<defs>
<linearGradient id="paint0_linear" x1="124.639" y1="41.0537" x2="124.639" y2="51.5824" gradientUnits="userSpaceOnUse">
<stop stop-color="#DB105F"/>
<stop offset="1" stop-color="#FF5F9D"/>
</linearGradient>
<linearGradient id="paint1_linear" x1="125.581" y1="49.1589" x2="125.995" y2="53.1088" gradientUnits="userSpaceOnUse">
<stop stop-color="#DB105F"/>
<stop offset="1" stop-color="#EA4183"/>
</linearGradient>
<linearGradient id="paint2_linear" x1="120.977" y1="74.8258" x2="120.73" y2="61.2528" gradientUnits="userSpaceOnUse">
<stop stop-color="#DB105F"/>
<stop offset="0.572917" stop-color="#F12776"/>
<stop offset="1" stop-color="#DB105F"/>
</linearGradient>
<linearGradient id="paint3_linear" x1="109.131" y1="19.135" x2="125.007" y2="60.7591" gradientUnits="userSpaceOnUse">
<stop stop-color="#DB105F"/>
<stop offset="1" stop-color="#F4468A"/>
</linearGradient>
<clipPath id="clip0">
<rect width="65.3742" height="70.772" fill="white" transform="translate(89.3127 24.386)"/>
</clipPath>
</defs>
</svg>
