<svg width="244" height="178" viewBox="0 0 244 178" fill="none" xmlns="http://www.w3.org/2000/svg">
<g clip-path="url(#clip0)">
<path d="M144.048 71.072L154.893 77.3993C153.254 80.226 151.253 82.8185 148.934 85.074C142.627 91.2842 134.029 95.0923 124.562 95.0923C124.257 95.0923 123.953 95.0776 123.648 95.0776C111.107 94.7408 100.175 87.7397 94.2595 77.4432C91.2438 72.229 89.533 66.1654 89.533 59.7063C89.533 53.2618 91.2438 47.2274 94.2305 42.0133C100.291 31.4531 111.614 24.3203 124.562 24.3203C137.509 24.3203 148.847 31.4678 154.907 42.0572L144.077 48.3845C140.177 41.5739 132.884 36.9749 124.562 36.9749C116.239 36.9749 108.961 41.5446 105.075 48.3406C103.147 51.68 102.045 55.5613 102.045 59.7063C102.045 63.8659 103.162 67.7619 105.09 71.1159C105.09 71.1159 105.104 71.1452 105.133 71.2038C109.063 77.9265 116.297 82.4377 124.562 82.4377C132.869 82.4377 140.148 77.868 144.048 71.072Z" fill="#4DB7B4"/>
<path d="M143.091 59.7063C143.091 63.1189 142.192 66.3119 140.597 69.0654C137.393 74.6604 131.405 78.4246 124.562 78.4246C123.764 78.4246 122.981 78.3806 122.213 78.2781C116.384 77.5311 111.382 74.0306 108.541 69.1094L113.949 65.9457L119.371 62.7821C120.43 64.5836 122.358 65.7846 124.562 65.7846C126.78 65.7846 128.723 64.5543 129.767 62.7381C130.274 61.8447 130.579 60.8048 130.579 59.7063C130.579 58.7543 130.361 57.8608 129.97 57.0699C129.955 57.0406 129.941 57.0113 129.941 56.982C129.926 56.9527 129.912 56.9381 129.897 56.9088C129.868 56.8502 129.839 56.8063 129.81 56.7623C129.796 56.7331 129.781 56.7184 129.781 56.7184C128.752 54.8729 126.794 53.628 124.562 53.628C122.329 53.628 120.386 54.8583 119.357 56.6745H119.342L113.934 53.5108L108.512 50.3472C111.716 44.7522 117.718 40.988 124.562 40.988C131.419 40.988 137.422 44.7815 140.626 50.3911C142.192 53.13 143.091 56.323 143.091 59.7063Z" fill="#4DB7B4"/>
<path d="M144.048 71.072L154.893 77.3993C153.254 80.226 151.253 82.8185 148.934 85.074C142.627 91.2842 134.029 95.0923 124.562 95.0923C124.257 95.0923 123.953 95.0776 123.648 95.0776C111.107 94.7408 100.175 87.7397 94.2595 77.4432C91.2438 72.229 89.533 66.1654 89.533 59.7063C89.533 53.2618 91.2438 47.2274 94.2305 42.0133C100.291 31.4531 111.614 24.3203 124.562 24.3203C137.509 24.3203 148.847 31.4678 154.907 42.0572L144.077 48.3845C140.177 41.5739 132.884 36.9749 124.562 36.9749C116.239 36.9749 108.961 41.5446 105.075 48.3406C103.147 51.68 102.045 55.5613 102.045 59.7063C102.045 63.8659 103.162 67.7619 105.09 71.1159C105.09 71.1159 105.104 71.1452 105.133 71.2038C109.063 77.9265 116.297 82.4377 124.562 82.4377C132.869 82.4377 140.148 77.868 144.048 71.072Z" fill="white"/>
<path d="M141.119 51.3285C138.93 50.5229 129.825 47.5057 122.706 50.1714C114.993 53.0275 109.208 50.4936 108.599 50.2007C111.817 44.679 117.776 40.988 124.562 40.988C131.419 40.988 137.422 44.7815 140.626 50.3911C140.8 50.6987 140.974 51.0063 141.119 51.3285Z" fill="url(#paint0_linear)"/>
<path d="M143.091 59.6184C139.481 58.9593 135.001 58.725 131.101 60.175C130.912 60.2482 130.724 60.3068 130.535 60.3654C130.564 60.1603 130.579 59.926 130.579 59.7063C130.579 58.7543 130.361 57.8608 129.97 57.0699C129.955 57.0406 129.941 57.0113 129.941 56.982C129.926 56.9527 129.912 56.9381 129.897 56.9088C129.868 56.8502 129.839 56.8063 129.81 56.7623C129.796 56.733 129.781 56.7184 129.781 56.7184C128.752 54.8729 126.794 53.628 124.562 53.628C122.329 53.628 120.386 54.8583 119.357 56.6745H119.342L113.934 53.5108L108.512 50.3472C108.541 50.3032 108.57 50.2446 108.599 50.2007C109.208 50.4936 114.993 53.0275 122.706 50.1714C129.825 47.5057 138.93 50.5229 141.119 51.3285C142.366 53.8184 143.076 56.6452 143.091 59.6184Z" fill="url(#paint1_linear)"/>
<path d="M143.091 59.6184V59.7063C143.091 63.1189 142.192 66.3119 140.597 69.0654C139.988 70.1346 139.278 71.1306 138.48 72.0533C134.855 70.9548 127.766 69.373 121.981 71.526C117.472 73.2104 113.63 73.0346 111.078 72.5366C110.106 71.4967 109.251 70.3543 108.541 69.1093L113.949 65.9457L119.371 62.782C120.429 64.5836 122.358 65.7846 124.561 65.7846C126.78 65.7846 128.723 64.5543 129.766 62.7381C130.172 62.0204 130.448 61.2295 130.535 60.3654C130.723 60.3068 130.912 60.2482 131.1 60.175C135 58.725 139.481 58.9593 143.091 59.6184Z" fill="url(#paint2_linear)"/>
<path d="M138.48 72.0533C135.073 75.9639 130.1 78.4245 124.562 78.4245C123.764 78.4245 122.981 78.3806 122.213 78.2781C117.849 77.7215 113.949 75.6124 111.078 72.5366C113.63 73.0346 117.472 73.2104 121.981 71.526C127.766 69.373 134.856 70.9548 138.48 72.0533Z" fill="url(#paint3_linear)"/>
<path d="M108.599 50.2011C108.555 50.1862 108.541 50.1714 108.541 50.1714" stroke="#9B8579" stroke-width="0.149941" stroke-miterlimit="10"/>
</g>
<path d="M50.3457 127.588C49.6641 120.909 44.6888 117.092 37.9415 117.092C30.499 117.092 24.7058 122.204 24.7058 131.432C24.7058 140.619 30.3627 145.772 37.9415 145.772C45.6021 145.772 49.8413 140.565 50.3457 135.617L43.5302 135.576C43.0531 138.261 41.0357 139.856 38.0778 139.856C34.0976 139.856 31.5895 136.98 31.5895 131.432C31.5895 126.102 34.043 123.008 38.1187 123.008C41.1857 123.008 43.1894 124.794 43.5302 127.588H50.3457Z" fill="white"/>
<path d="M79.5466 127.588C78.8651 120.909 73.8898 117.092 67.1424 117.092C59.6999 117.092 53.9068 122.204 53.9068 131.432C53.9068 140.619 59.5636 145.772 67.1424 145.772C74.8031 145.772 79.0423 140.565 79.5466 135.617L72.7311 135.576C72.2541 138.261 70.2367 139.856 67.2788 139.856C63.2985 139.856 60.7904 136.98 60.7904 131.432C60.7904 126.102 63.244 123.008 67.3196 123.008C70.3866 123.008 72.3904 124.794 72.7311 127.588H79.5466Z" fill="white"/>
<path d="M109.974 126.593H116.803C116.122 121.032 111.16 117.092 104.699 117.092C97.243 117.092 91.3545 122.34 91.3545 131.473C91.3545 140.306 96.7796 145.772 104.781 145.772C111.964 145.772 117.103 141.315 117.103 133.817V130.123H105.067V135.044H110.601C110.533 137.989 108.489 139.856 104.835 139.856C100.651 139.856 98.2381 136.762 98.2381 131.391C98.2381 126.061 100.787 123.008 104.835 123.008C107.534 123.008 109.375 124.33 109.974 126.593Z" fill="white"/>
<path d="M126.982 145.745C129.899 145.745 131.917 144.613 133.062 142.473H133.225V145.39H139.496V131.159C139.496 126.729 135.556 124.18 130.227 124.18C124.597 124.18 121.407 127.016 120.876 130.832L127.023 131.05C127.31 129.715 128.414 128.897 130.172 128.897C131.808 128.897 132.844 129.687 132.844 131.091V131.159C132.844 132.441 131.453 132.713 127.882 133.027C123.643 133.381 120.099 134.949 120.099 139.583C120.099 143.727 122.975 145.745 126.982 145.745ZM129.041 141.383C127.5 141.383 126.41 140.647 126.41 139.256C126.41 137.907 127.473 137.089 129.368 136.803C130.608 136.625 132.135 136.353 132.885 135.958V137.948C132.885 139.992 131.167 141.383 129.041 141.383Z" fill="white"/>
<path d="M150.237 117.474H143.571V145.39H150.237V117.474Z" fill="white"/>
<path d="M160.382 145.745C163.299 145.745 165.316 144.613 166.461 142.473H166.625V145.39H172.895V131.159C172.895 126.729 168.956 124.18 163.626 124.18C157.996 124.18 154.807 127.016 154.275 130.832L160.423 131.05C160.709 129.715 161.813 128.897 163.571 128.897C165.207 128.897 166.243 129.687 166.243 131.091V131.159C166.243 132.441 164.853 132.713 161.281 133.027C157.042 133.381 153.498 134.949 153.498 139.583C153.498 143.727 156.374 145.745 160.382 145.745ZM162.44 141.383C160.9 141.383 159.809 140.647 159.809 139.256C159.809 137.907 160.872 137.089 162.767 136.803C164.008 136.625 165.534 136.353 166.284 135.958V137.948C166.284 139.992 164.566 141.383 162.44 141.383Z" fill="white"/>
<path d="M182.641 124.453H175.88L181.66 134.922L175.58 145.39H182.341L186.09 138.438L189.934 145.39H196.599L190.533 134.922L196.381 124.453H189.661L186.09 131.35L182.641 124.453Z" fill="white"/>
<path d="M203.5 153.242C208.298 153.242 210.683 150.815 211.842 147.394L219.734 124.467L212.714 124.453L208.802 139.393H208.584L204.727 124.453H197.748L205.19 146.154L204.931 146.781C204.29 148.348 202.846 148.375 200.883 147.735L199.411 152.574C200.419 152.983 201.905 153.242 203.5 153.242Z" fill="white"/>
<defs>
<linearGradient id="paint0_linear" x1="129.91" y1="56.9924" x2="128.538" y2="37.9963" gradientUnits="userSpaceOnUse">
<stop stop-color="white"/>
<stop offset="1" stop-color="#E0E0E0"/>
</linearGradient>
<linearGradient id="paint1_linear" x1="125.801" y1="60.3654" x2="124.835" y2="46.8429" gradientUnits="userSpaceOnUse">
<stop stop-color="white"/>
<stop offset="1" stop-color="#E0E0E0"/>
</linearGradient>
<linearGradient id="paint2_linear" x1="125.816" y1="76.8115" x2="126.618" y2="52.5349" gradientUnits="userSpaceOnUse">
<stop stop-color="white"/>
<stop offset="1" stop-color="#E0E0E0"/>
</linearGradient>
<linearGradient id="paint3_linear" x1="126.344" y1="89.4298" x2="127.03" y2="67.2106" gradientUnits="userSpaceOnUse">
<stop stop-color="white"/>
<stop offset="1" stop-color="#E0E0E0"/>
</linearGradient>
<clipPath id="clip0">
<rect width="65.3742" height="70.772" fill="white" transform="translate(89.533 24.3203)"/>
</clipPath>
</defs>
</svg>
